<?xml version="1.0" encoding="UTF-8" standalone="no"?>
<svg
   xmlns:dc="http://purl.org/dc/elements/1.1/"
   xmlns:cc="http://creativecommons.org/ns#"
   xmlns:rdf="http://www.w3.org/1999/02/22-rdf-syntax-ns#"
   xmlns:svg="http://www.w3.org/2000/svg"
   xmlns="http://www.w3.org/2000/svg"
   xmlns:sodipodi="http://sodipodi.sourceforge.net/DTD/sodipodi-0.dtd"
   xmlns:inkscape="http://www.inkscape.org/namespaces/inkscape"
   viewBox="-178.3 -167.1 605 495"
   width="605"
   height="495"
   version="1.1"
   id="svg42"
   sodipodi:docname="awesome-connectivity-logo.svg"
   inkscape:version="0.92.4 (unknown)">
  <metadata
     id="metadata48">
    <rdf:RDF>
      <cc:Work
         rdf:about="">
        <dc:format>image/svg+xml</dc:format>
        <dc:type
           rdf:resource="http://purl.org/dc/dcmitype/StillImage" />
      </cc:Work>
    </rdf:RDF>
  </metadata>
  <defs
     id="defs46" />
  <sodipodi:namedview
     pagecolor="#ffffff"
     bordercolor="#666666"
     borderopacity="1"
     objecttolerance="10"
     gridtolerance="10"
     guidetolerance="10"
     inkscape:pageopacity="0"
     inkscape:pageshadow="2"
     inkscape:window-width="1725"
     inkscape:window-height="741"
     id="namedview44"
     showgrid="false"
     inkscape:zoom="1.0131313"
     inkscape:cx="272.39531"
     inkscape:cy="247.5"
     inkscape:window-x="0"
     inkscape:window-y="27"
     inkscape:window-maximized="0"
     inkscape:current-layer="svg42" />
  <path
     style="fill:#494368"
     d="M-117.6 212.62c4 0 7.3 1.4 10.1 4.2 2.8 2.8 4.2 6.2 4.2 10.1v49.6H-154c-4 0-7.3-1.4-10.1-4.2-2.8-2.8-4.2-6.2-4.2-10.1v-23.6h53.1v-11.7c0-.7-.2-1.2-.7-1.7-.5-.5-1-.7-1.7-.7h-50.7v-11.9zm2.4 52v-14.1h-41.2v11.7c0 .7.2 1.2.7 1.7.5.5 1 .7 1.7.7zm114.7-52h12.7l-24 63.9h-9.7l-21.5-47.5-20.3 47.5-.2-.1.1.1H-73l-25.1-63.9h12.6l17.3 42.4 18.4-42.4h13.6l19.5 42.4zm67.2 0c4 0 7.3 1.4 10.1 4.2 2.8 2.8 4.2 6.2 4.2 10.1v23.6H27.9v11.7c0 .7.2 1.2.7 1.7.5.5 1 .7 1.7.7H81v11.9H30.3c-4 0-7.3-1.4-10.1-4.2-2.8-2.8-4.2-6.2-4.2-10.1v-35.3c0-4 1.4-7.3 4.2-10.1 2.8-2.8 6.2-4.2 10.1-4.2zm-38.8 26h41.2v-11.7c0-.7-.2-1.2-.7-1.7-.5-.5-1-.7-1.7-.7H30.3c-.7 0-1.2.2-1.7.7-.5.5-.7 1-.7 1.7zm129-11.6v2.4H145v-2.4c0-.7-.2-1.2-.7-1.7-.5-.5-1-.7-1.7-.7h-36.4c-.7 0-1.2.2-1.7.7-.5.5-.7 1-.7 1.7v9.3c0 .7.2 1.2.7 1.7.5.5 1 .7 1.7.7h36.4c4 0 7.3 1.4 10.1 4.2 2.8 2.8 4.2 6.2 4.2 10.1v9.3c0 4-1.4 7.3-4.2 10.1-2.8 2.8-6.2 4.2-10.1 4.2h-36.4c-4 0-7.3-1.4-10.1-4.2-2.8-2.8-4.2-6.2-4.2-10.1v-2.4h11.9v2.4c0 .7.2 1.2.7 1.7.5.5 1 .7 1.7.7h36.4c.7 0 1.2-.2 1.7-.7.5-.5.7-1 .7-1.7v-9.3c0-.7-.2-1.2-.7-1.7-.5-.5-1-.7-1.7-.7h-36.4c-4 0-7.3-1.4-10.1-4.2-2.8-2.8-4.2-6.2-4.2-10.1v-9.3c0-4 1.4-7.3 4.2-10.1 2.8-2.8 6.2-4.2 10.1-4.2h36.4c4 0 7.3 1.4 10.1 4.2 2.8 2.7 4.2 6.1 4.2 10.1zm25.2-14.4h36.4c4 0 7.3 1.4 10.1 4.2 2.8 2.8 4.2 6.2 4.2 10.1v35.3c0 4-1.4 7.3-4.2 10.1-2.8 2.8-6.2 4.2-10.1 4.2h-36.4c-4 0-7.3-1.4-10.1-4.2-2.8-2.8-4.2-6.2-4.2-10.1v-35.3c0-4 1.4-7.3 4.2-10.1 2.8-2.8 6.2-4.2 10.1-4.2zm36.4 11.9h-36.4c-.7 0-1.2.2-1.7.7-.5.5-.7 1-.7 1.7v35.3c0 .7.2 1.2.7 1.7.5.5 1 .7 1.7.7h36.4c.7 0 1.2-.2 1.7-.7.5-.5.7-1 .7-1.7v-35.3c0-.7-.2-1.2-.7-1.7-.5-.4-1-.7-1.7-.7zm107.5-11.9c4 0 7.3 1.4 10.1 4.2 2.8 2.8 4.2 6.2 4.2 10.1v49.6h-11.8v-49.6c0-.7-.2-1.2-.7-1.7-.5-.5-1.1-.7-1.8-.7h-25.2c-.7 0-1.2.2-1.7.7-.5.5-.7 1-.7 1.7v49.6h-11.9v-49.6c0-.7-.2-1.2-.7-1.7-.5-.5-1-.7-1.7-.7h-25.3c-.7 0-1.2.2-1.7.7-.5.5-.7 1-.7 1.7v49.6h-11.9v-63.9zm76.5 0c4 0 7.3 1.4 10.1 4.2 2.8 2.8 4.2 6.2 4.2 10.1v23.6h-53.1v11.7c0 .7.2 1.2.7 1.7.5.5 1 .7 1.7.7h50.7v11.9h-50.7c-4 0-7.3-1.4-10.1-4.2-2.8-2.8-4.2-6.2-4.2-10.1v-35.3c0-4 1.4-7.3 4.2-10.1 2.8-2.8 6.2-4.2 10.1-4.2zm-38.8 26h41.2v-11.7c0-.7-.2-1.2-.7-1.7-.5-.5-1-.7-1.7-.7h-36.4c-.7 0-1.2.2-1.7.7-.5.5-.7 1-.7 1.7z"
     id="path2" />
  <path
     style="fill:#fc60a8"
     d="M416.7-19.48l-150-137.6-21.1 23 125 114.6h-492.7l125-114.7-21.1-23-150 137.7h-.1v90.7c0 41 39.5 74.4 88 74.4h92.5c48.5 0 88-33.4 88-74.4v-59.6h48v59.6c0 41 39.5 74.4 88 74.4h92.5c48.5 0 88-33.4 88-74.4z"
     id="path4" />
  <text
     style="font-style:normal;font-weight:400;font-size:29.33333397px;line-height:1.25;font-family:sans-serif;letter-spacing:0;word-spacing:0;fill:#494368;fill-opacity:1;stroke:none"
     x="-165.80818"
     y="317.34"
     id="text8">
    <tspan
       x="-165.80818"
       y="317.34"
       style="font-style:normal;font-variant:normal;font-weight:normal;font-stretch:normal;font-size:32px;font-family:Ubuntu;-inkscape-font-specification:'Ubuntu, Normal';font-variant-ligatures:normal;font-variant-caps:normal;font-variant-numeric:normal;font-feature-settings:normal;text-align:start;writing-mode:lr-tb;text-anchor:start;fill:#494368;fill-opacity:1"
       id="tspan6">CONNECTIVITY DATA, MAPS &amp; REPORTS</tspan>
  </text>
  <g
     transform="matrix(.46967 0 0 .5297 -103.61 -32.8)"
     style="fill:#fff;fill-opacity:1;stroke:none"
     id="g24">
    <path
       d="M53.74 239.95c-7.9-8.08-18.46-13.49-30.52-15.8A43.04 43.04 0 0 0 52.6 183.4a43.03 43.03 0 0 0-43-42.98 43.02 43.02 0 0 0-42.97 42.98A43.04 43.04 0 0 0-4 224.15c-12.06 2.31-22.62 7.71-30.52 15.8-10.43 10.68-15.73 25.42-15.33 42.63a10 10 0 0 0 9.99 9.76h98.94a10 10 0 0 0 10-9.76c.4-17.21-4.9-31.95-15.34-42.63zm297.86.3c-7.9-8.08-18.46-13.49-30.52-15.8a43.04 43.04 0 0 0 29.36-40.75 43.03 43.03 0 0 0-42.97-42.98 43.02 43.02 0 0 0-42.98 42.98 43.04 43.04 0 0 0 29.36 40.75c-12.06 2.31-22.61 7.71-30.51 15.8-10.44 10.68-15.74 25.42-15.34 42.63a10 10 0 0 0 10 9.76h98.94a10 10 0 0 0 9.99-9.76c.4-17.21-4.9-31.95-15.33-42.63z"
       style="fill:#fff;fill-opacity:1;stroke:none"
       id="path10" />
    <g
       transform="rotate(-31.5 146.08 203.65)"
       style="fill:#fff;fill-opacity:1;stroke:none"
       id="g16">
      <path
         d="M86.15 45.2a10 10 0 0 0-10.46 17.05 61.8 61.8 0 0 1 29.69 53.01 61.8 61.8 0 0 1-29.7 53.01 10 10 0 1 0 10.47 17.05 81.67 81.67 0 0 0 39.23-70.06 81.67 81.67 0 0 0-39.23-70.05z"
         style="fill:#fff;fill-opacity:1;stroke:none"
         id="path12" />
      <path
         d="M120.22 12.42a10 10 0 0 0-12 16 107.64 107.64 0 0 1 43.47 86.84c0 34.48-15.84 66.13-43.47 86.84a10 10 0 1 0 12 16c32.71-24.52 51.47-62 51.47-102.84 0-40.83-18.76-78.31-51.47-102.84z"
         style="fill:#fff;fill-opacity:1;stroke:none"
         id="path14" />
    </g>
    <g
       transform="scale(-1 1) rotate(-31.5 -14.95 776.3)"
       style="fill:#fff;fill-opacity:1;stroke:none"
       id="g22">
      <path
         d="M86.15 45.2a10 10 0 0 0-10.46 17.05 61.8 61.8 0 0 1 29.69 53.01 61.8 61.8 0 0 1-29.7 53.01 10 10 0 1 0 10.47 17.05 81.67 81.67 0 0 0 39.23-70.06 81.67 81.67 0 0 0-39.23-70.05z"
         style="fill:#fff;fill-opacity:1;stroke:none"
         id="path18" />
      <path
         d="M120.22 12.42a10 10 0 0 0-12 16 107.64 107.64 0 0 1 43.47 86.84c0 34.48-15.84 66.13-43.47 86.84a10 10 0 1 0 12 16c32.71-24.52 51.47-62 51.47-102.84 0-40.83-18.76-78.31-51.47-102.84z"
         style="fill:#fff;fill-opacity:1;stroke:none"
         id="path20" />
    </g>
  </g>
  <g
     transform="matrix(.46967 0 0 .5297 215.4 -33.64)"
     style="fill:#fff;fill-opacity:1;stroke:none;stroke-opacity:1"
     id="g40">
    <path
       d="M53.74 239.95c-7.9-8.08-18.46-13.49-30.52-15.8A43.04 43.04 0 0 0 52.6 183.4a43.03 43.03 0 0 0-43-42.98 43.02 43.02 0 0 0-42.97 42.98A43.04 43.04 0 0 0-4 224.15c-12.06 2.31-22.62 7.71-30.52 15.8-10.43 10.68-15.73 25.42-15.33 42.63a10 10 0 0 0 9.99 9.76h98.94a10 10 0 0 0 10-9.76c.4-17.21-4.9-31.95-15.34-42.63zm297.86.3c-7.9-8.08-18.46-13.49-30.52-15.8a43.04 43.04 0 0 0 29.36-40.75 43.03 43.03 0 0 0-42.97-42.98 43.02 43.02 0 0 0-42.98 42.98 43.04 43.04 0 0 0 29.36 40.75c-12.06 2.31-22.61 7.71-30.51 15.8-10.44 10.68-15.74 25.42-15.34 42.63a10 10 0 0 0 10 9.76h98.94a10 10 0 0 0 9.99-9.76c.4-17.21-4.9-31.95-15.33-42.63z"
       style="fill:#fff;fill-opacity:1;stroke:none;stroke-opacity:1"
       id="path26" />
    <g
       transform="rotate(-31.5 146.08 203.65)"
       style="fill:#fff;fill-opacity:1;stroke:none;stroke-opacity:1"
       id="g32">
      <path
         d="M86.15 45.2a10 10 0 0 0-10.46 17.05 61.8 61.8 0 0 1 29.69 53.01 61.8 61.8 0 0 1-29.7 53.01 10 10 0 1 0 10.47 17.05 81.67 81.67 0 0 0 39.23-70.06 81.67 81.67 0 0 0-39.23-70.05z"
         style="fill:#fff;fill-opacity:1;stroke:none;stroke-opacity:1"
         id="path28" />
      <path
         d="M120.22 12.42a10 10 0 0 0-12 16 107.64 107.64 0 0 1 43.47 86.84c0 34.48-15.84 66.13-43.47 86.84a10 10 0 1 0 12 16c32.71-24.52 51.47-62 51.47-102.84 0-40.83-18.76-78.31-51.47-102.84z"
         style="fill:#fff;fill-opacity:1;stroke:none;stroke-opacity:1"
         id="path30" />
    </g>
    <g
       transform="scale(-1 1) rotate(-31.5 -14.95 776.3)"
       style="fill:#fff;fill-opacity:1;stroke:none;stroke-opacity:1"
       id="g38">
      <path
         d="M86.15 45.2a10 10 0 0 0-10.46 17.05 61.8 61.8 0 0 1 29.69 53.01 61.8 61.8 0 0 1-29.7 53.01 10 10 0 1 0 10.47 17.05 81.67 81.67 0 0 0 39.23-70.06 81.67 81.67 0 0 0-39.23-70.05z"
         style="fill:#fff;fill-opacity:1;stroke:none;stroke-opacity:1"
         id="path34" />
      <path
         d="M120.22 12.42a10 10 0 0 0-12 16 107.64 107.64 0 0 1 43.47 86.84c0 34.48-15.84 66.13-43.47 86.84a10 10 0 1 0 12 16c32.71-24.52 51.47-62 51.47-102.84 0-40.83-18.76-78.31-51.47-102.84z"
         style="fill:#fff;fill-opacity:1;stroke:none;stroke-opacity:1"
         id="path36" />
    </g>
  </g>
</svg>
